<svg width="100" height="100" viewBox="0 0 403 355" fill="none" xmlns="http://www.w3.org/2000/svg">
<path d="M303.911 3.68377L302.069 0H100.843L0 177.281L100.383 354.563H301.608L402.452 177.281L303.911 3.68377ZM124.327 63.545L16.577 166.691L102.225 15.656L124.327 63.545ZM296.543 15.1955L326.013 179.584L140.904 65.8474L296.543 15.1955ZM134.458 72.7544L323.251 188.793L134.458 296.083V72.7544ZM325.553 198.003L292.399 339.828L142.286 302.529L325.553 198.003ZM125.248 292.399L16.577 179.584L125.248 75.0568V292.399ZM123.867 304.371L102.685 339.828L23.9445 200.765L123.867 304.371ZM132.155 308.976L276.743 345.353H110.053L132.155 308.976ZM336.144 192.477L389.558 180.965L302.99 333.841L336.144 192.477ZM388.637 172.216L336.144 183.728L308.976 31.312L388.637 172.216ZM132.155 58.9403L109.132 9.20942H285.032L132.155 58.9403Z" fill="#D9D9D9"/>
</svg>
